<svg width="20" height="20" viewBox="0 0 20 20" fill="none" xmlns="http://www.w3.org/2000/svg">
<path d="M10 0C4.5 0 0 4.5 0 10C0 15.5 4.5 20 10 20C11.8 20 13.5 19.5 15 18.7C15.5 18.4 15.6 17.8 15.4 17.3C15.1 16.8 14.5 16.7 14 16.9C10.2 19.1 5.3 17.8 3.1 14C0.9 10.2 2.2 5.3 6 3.1C9.8 0.9 14.7 2.2 16.9 6C17.6 7.2 18 8.6 18 10V10.8C18 11.8 17.2 12.6 16.2 12.6C15.2 12.6 14.4 11.8 14.4 10.8V6.5C14.4 5.9 14 5.5 13.4 5.5C12.9 5.5 12.5 5.8 12.4 6.3C10.4 4.9 7.5 5.4 6.1 7.4C4.7 9.4 5.2 12.3 7.2 13.7C9.1 15 11.6 14.7 13.1 13C14.4 14.6 16.7 14.9 18.3 13.7C19.2 13 19.8 11.9 19.8 10.7V10C20 4.5 15.5 0 10 0ZM10 12.5C8.6 12.5 7.5 11.4 7.5 10C7.5 8.6 8.6 7.5 10 7.5C11.4 7.5 12.5 8.6 12.5 10C12.5 11.4 11.4 12.5 10 12.5Z" fill="black"/>
</svg>
